<svg width="24" height="23" viewBox="0 0 24 23" fill="none" xmlns="http://www.w3.org/2000/svg">
<circle r="11.5" transform="matrix(-1 0 0 1 12.1526 11.5)" fill="#FFDE6B"/>
<path d="M21.7303 13.1292L13.5283 8.62508V3.35425C13.5283 2.55883 12.8396 1.91675 11.9865 1.91675C11.1334 1.91675 10.4448 2.55883 10.4448 3.35425V8.62508L2.24275 13.1292C1.91385 13.3017 1.70828 13.6372 1.70828 13.9917C1.70828 14.6626 2.39692 15.1417 3.08557 14.9597L10.4448 12.9472V18.2084L8.12191 19.5022C7.96773 19.5884 7.87523 19.7513 7.87523 19.9142V20.3934V20.4701C7.87523 20.7863 8.19386 21.0163 8.51248 20.9397L11.5137 20.2401L11.9865 20.1251L12.3771 20.2113L12.8088 20.3167L14.7617 20.7767L15.4503 20.9397C15.7792 21.0163 16.0875 20.7863 16.0875 20.4701V20.1155V19.9142C16.0875 19.7417 15.995 19.5884 15.8409 19.5022L13.5283 18.2084V12.9376L20.8875 14.9501C21.5761 15.1417 22.2648 14.6626 22.2648 13.9917C22.2648 13.6372 22.0592 13.3017 21.7303 13.1292Z" fill="#FF7D6B"/>
</svg>
