<svg width="23" height="23" viewBox="0 0 23 23" fill="none" xmlns="http://www.w3.org/2000/svg">
<path d="M0 5C0 2.23858 2.23858 0 5 0H18C20.7614 0 23 2.23858 23 5V18C23 20.7614 20.7614 23 18 23H5C2.23858 23 0 20.7614 0 18V5Z" fill="white"/>
<path d="M0 5C0 2.23858 2.23858 0 5 0H18C20.7614 0 23 2.23858 23 5V18C23 20.7614 20.7614 23 18 23H5C2.23858 23 0 20.7614 0 18V5Z" fill="black"/>
<path fill-rule="evenodd" clip-rule="evenodd" d="M16.2335 2.875C17.5187 2.875 18.7549 3.38292 19.6644 4.29429C20.5748 5.20375 21.0837 6.43042 21.0837 7.71458V15.2854C21.0837 17.9592 18.9082 20.125 16.2335 20.125H6.76616C4.09145 20.125 1.91699 17.9592 1.91699 15.2854V7.71458C1.91699 5.04083 4.08187 2.875 6.76616 2.875H16.2335ZM17.7582 9.1425L17.8349 9.06583C18.0639 8.78792 18.0639 8.38542 17.8244 8.1075C17.6912 7.96471 17.5081 7.8775 17.3174 7.85833C17.1162 7.84779 16.9245 7.91583 16.7798 8.05L12.4587 11.5C11.9028 11.961 11.1065 11.961 10.542 11.5L6.22949 8.05C5.93145 7.82958 5.51937 7.85833 5.27116 8.11708C5.01241 8.37583 4.98366 8.78792 5.20312 9.07542L5.32866 9.2L9.68907 12.6021C10.2257 13.0238 10.8765 13.2537 11.5578 13.2537C12.2373 13.2537 12.8995 13.0238 13.4352 12.6021L17.7582 9.1425Z" fill="white"/>
</svg>
