<svg width="21" height="20" viewBox="0 0 21 20" fill="none" xmlns="http://www.w3.org/2000/svg">
<path d="M10.0033 0.0400391C4.5033 0.0400391 0.0032959 4.53004 0.0032959 10.06C0.0032959 15.06 3.6633 19.21 8.4433 19.96V12.96H5.9033V10.06H8.4433V7.85004C8.4433 5.34004 9.9333 3.96004 12.2233 3.96004C13.3133 3.96004 14.4533 4.15004 14.4533 4.15004V6.62004H13.1933C11.9533 6.62004 11.5633 7.39004 11.5633 8.18004V10.06H14.3433L13.8933 12.96H11.5633V19.96C13.9197 19.5879 16.0655 18.3856 17.6132 16.5701C19.1609 14.7546 20.0086 12.4457 20.0033 10.06C20.0033 4.53004 15.5033 0.0400391 10.0033 0.0400391Z" fill="white"/>
</svg>
