<svg width="21" height="20" viewBox="0 0 21 20" fill="none" xmlns="http://www.w3.org/2000/svg">
<path d="M5.8033 0H14.2033C17.4033 0 20.0033 2.6 20.0033 5.8V14.2C20.0033 15.7383 19.3922 17.2135 18.3045 18.3012C17.2168 19.3889 15.7416 20 14.2033 20H5.8033C2.6033 20 0.0032959 17.4 0.0032959 14.2V5.8C0.0032959 4.26174 0.614366 2.78649 1.70208 1.69878C2.78979 0.61107 4.26504 0 5.8033 0ZM5.6033 2C4.64852 2 3.73284 2.37928 3.05771 3.05442C2.38258 3.72955 2.0033 4.64522 2.0033 5.6V14.4C2.0033 16.39 3.6133 18 5.6033 18H14.4033C15.3581 18 16.2738 17.6207 16.9489 16.9456C17.624 16.2705 18.0033 15.3548 18.0033 14.4V5.6C18.0033 3.61 16.3933 2 14.4033 2H5.6033ZM15.2533 3.5C15.5848 3.5 15.9028 3.6317 16.1372 3.86612C16.3716 4.10054 16.5033 4.41848 16.5033 4.75C16.5033 5.08152 16.3716 5.39946 16.1372 5.63388C15.9028 5.8683 15.5848 6 15.2533 6C14.9218 6 14.6038 5.8683 14.3694 5.63388C14.135 5.39946 14.0033 5.08152 14.0033 4.75C14.0033 4.41848 14.135 4.10054 14.3694 3.86612C14.6038 3.6317 14.9218 3.5 15.2533 3.5ZM10.0033 5C11.3294 5 12.6011 5.52678 13.5388 6.46447C14.4765 7.40215 15.0033 8.67392 15.0033 10C15.0033 11.3261 14.4765 12.5979 13.5388 13.5355C12.6011 14.4732 11.3294 15 10.0033 15C8.67721 15 7.40544 14.4732 6.46776 13.5355C5.53008 12.5979 5.0033 11.3261 5.0033 10C5.0033 8.67392 5.53008 7.40215 6.46776 6.46447C7.40544 5.52678 8.67721 5 10.0033 5ZM10.0033 7C9.20765 7 8.44458 7.31607 7.88198 7.87868C7.31937 8.44129 7.0033 9.20435 7.0033 10C7.0033 10.7956 7.31937 11.5587 7.88198 12.1213C8.44458 12.6839 9.20765 13 10.0033 13C10.7989 13 11.562 12.6839 12.1246 12.1213C12.6872 11.5587 13.0033 10.7956 13.0033 10C13.0033 9.20435 12.6872 8.44129 12.1246 7.87868C11.562 7.31607 10.7989 7 10.0033 7Z" fill="white"/>
</svg>
