<svg width="24" height="23" viewBox="0 0 24 23" fill="none" xmlns="http://www.w3.org/2000/svg">
<path d="M0.946045 5C0.946045 2.23858 3.18462 0 5.94604 0H18.946C21.7075 0 23.946 2.23858 23.946 5V18C23.946 20.7614 21.7075 23 18.946 23H5.94604C3.18462 23 0.946045 20.7614 0.946045 18V5Z" fill="white"/>
<path d="M0.946045 5C0.946045 2.23858 3.18462 0 5.94604 0H18.946C21.7075 0 23.946 2.23858 23.946 5V18C23.946 20.7614 21.7075 23 18.946 23H5.94604C3.18462 23 0.946045 20.7614 0.946045 18V5Z" fill="black"/>
<path fill-rule="evenodd" clip-rule="evenodd" d="M11.9973 11.9526C15.8202 15.7744 16.6874 11.353 19.1215 13.7854C21.4681 16.1313 22.8168 16.6013 19.8436 19.5736C19.4712 19.8729 17.1051 23.4736 8.78962 15.1604C0.473127 6.84625 4.07173 4.47768 4.3711 4.10537C7.35142 1.12485 7.81333 2.48141 10.1599 4.82736C12.594 7.26073 8.17442 8.13082 11.9973 11.9526Z" fill="white"/>
</svg>
