<svg width="40" height="40" viewBox="0 0 40 40" fill="none" xmlns="http://www.w3.org/2000/svg">
<circle r="20" transform="matrix(-1 0 0 1 20 20)" fill="#7768F2"/>
<path d="M11.698 22.9022C11.3125 23.2931 11.317 23.9225 11.7079 24.3079V24.3079C12.0966 24.691 12.7215 24.6891 13.1078 24.3036L16.7461 20.6725C17.1181 20.3013 17.1181 19.6987 16.7461 19.3275L13.1078 15.6964C12.7215 15.3109 12.0966 15.309 11.7079 15.6921V15.6921C11.317 16.0775 11.3125 16.7069 11.698 17.0978L14.4788 19.9177C14.5238 19.9633 14.5238 20.0367 14.4788 20.0823L11.698 22.9022ZM29 15C29 14.4477 28.5523 14 28 14H17C16.4477 14 16 14.4477 16 15V15C16 15.5523 16.4477 16 17 16H28C28.5523 16 29 15.5523 29 15V15ZM28 21C28.5523 21 29 20.5523 29 20V20C29 19.4477 28.5523 19 28 19H20C19.4477 19 19 19.4477 19 20V20C19 20.5523 19.4477 21 20 21H28ZM28 26C28.5523 26 29 25.5523 29 25V25C29 24.4477 28.5523 24 28 24H17C16.4477 24 16 24.4477 16 25V25C16 25.5523 16.4477 26 17 26H28Z" fill="white"/>
</svg>
