<svg width="34" height="34" viewBox="0 0 34 34" fill="none" xmlns="http://www.w3.org/2000/svg">
<path fill-rule="evenodd" clip-rule="evenodd" d="M10.3848 2.8335H23.6023C28.419 2.8335 31.1673 5.5535 31.1673 10.3843V23.616C31.1673 28.4185 28.4332 31.1668 23.6165 31.1668H10.3848C5.55398 31.1668 2.83398 28.4185 2.83398 23.616V10.3843C2.83398 5.5535 5.55398 2.8335 10.3848 2.8335ZM18.1623 18.176H22.1856C22.8373 18.1618 23.3615 17.6377 23.3615 16.986C23.3615 16.3343 22.8373 15.8102 22.1856 15.8102H18.1623V11.8152C18.1623 11.1635 17.6382 10.6393 16.9865 10.6393C16.3348 10.6393 15.8107 11.1635 15.8107 11.8152V15.8102H11.8015C11.4898 15.8102 11.1923 15.9377 10.9657 16.1502C10.7532 16.3768 10.6257 16.6729 10.6257 16.986C10.6257 17.6377 11.1498 18.1618 11.8015 18.176H15.8107V22.1852C15.8107 22.8368 16.3348 23.361 16.9865 23.361C17.6382 23.361 18.1623 22.8368 18.1623 22.1852V18.176Z" fill="#FF6B6B"/>
</svg>
