<svg width="34" height="34" viewBox="0 0 34 34" fill="none" xmlns="http://www.w3.org/2000/svg">
<path fill-rule="evenodd" clip-rule="evenodd" d="M16.6155 31.0443C16.7723 31.1262 16.9478 31.1679 17.1232 31.1665C17.2986 31.1651 17.4726 31.1221 17.6309 31.0387L22.6854 28.3367C24.1188 27.5727 25.2412 26.7183 26.1169 25.7237C28.0209 23.5565 29.0606 20.7907 29.042 17.9387L28.9821 8.53106C28.9764 7.44749 28.2648 6.48062 27.2122 6.12915L17.8092 2.9743C17.243 2.78259 16.6226 2.78676 16.0664 2.98403L6.699 6.2514C5.65216 6.61676 4.95331 7.59058 4.95902 8.67554L5.01892 18.0762C5.03746 20.9324 6.11282 23.6857 8.0482 25.8306C8.93245 26.8114 10.0649 27.6533 11.5139 28.4048L16.6155 31.0443ZM15.2774 19.9876C15.4885 20.1904 15.7623 20.2904 16.0362 20.2876C16.31 20.2862 16.5824 20.1834 16.7906 19.9778L22.3143 14.5322C22.7294 14.1224 22.7251 13.4639 22.3058 13.0597C21.8851 12.6554 21.2076 12.6582 20.7926 13.068L16.0205 17.7718L14.0666 15.8936C13.6458 15.4894 12.9698 15.4935 12.5534 15.9034C12.1383 16.3132 12.1426 16.9716 12.5633 17.3759L15.2774 19.9876Z" fill="#F9C249"/>
</svg>
