<svg width="110" height="110" viewBox="0 0 110 110" fill="none" xmlns="http://www.w3.org/2000/svg">
<g filter="url(#filter0_d)">
<rect x="21" y="17" width="68" height="68" rx="10" fill="white"/>
</g>
<path fill-rule="evenodd" clip-rule="evenodd" d="M54.615 65.0444C54.7718 65.1263 54.9473 65.168 55.1227 65.1666C55.2981 65.1652 55.4721 65.1222 55.6304 65.0388L60.6849 62.3368C62.1183 61.5728 63.2407 60.7184 64.1164 59.7238C66.0204 57.5566 67.0601 54.7908 67.0416 51.9387L66.9817 42.5312C66.9759 41.4476 66.2643 40.4807 65.2117 40.1292L55.8087 36.9744C55.2425 36.7827 54.6221 36.7869 54.0659 36.9841L44.6985 40.2515C43.6517 40.6168 42.9528 41.5907 42.9585 42.6756L43.0184 52.0763C43.037 54.9325 44.1123 57.6858 46.0477 59.8307C46.932 60.8115 48.0644 61.6534 49.5134 62.4049L54.615 65.0444ZM53.2769 53.9877C53.488 54.1905 53.7618 54.2905 54.0357 54.2877C54.3095 54.2863 54.5819 54.1835 54.7901 53.9779L60.3139 48.5323C60.7289 48.1225 60.7246 47.464 60.3053 47.0598C59.8846 46.6555 59.2071 46.6583 58.7921 47.0681L54.02 51.7719L52.0661 49.8937C51.6453 49.4895 50.9693 49.4936 50.5529 49.9034C50.1378 50.3133 50.1421 50.9717 50.5628 51.376L53.2769 53.9877Z" fill="#E580E4"/>
<defs>
<filter id="filter0_d" x="0" y="0" width="110" height="110" filterUnits="userSpaceOnUse" color-interpolation-filters="sRGB">
<feFlood flood-opacity="0" result="BackgroundImageFix"/>
<feColorMatrix in="SourceAlpha" type="matrix" values="0 0 0 0 0 0 0 0 0 0 0 0 0 0 0 0 0 0 127 0" result="hardAlpha"/>
<feOffset dy="4"/>
<feGaussianBlur stdDeviation="10.5"/>
<feColorMatrix type="matrix" values="0 0 0 0 0.31288 0 0 0 0 0.19375 0 0 0 0 0.645833 0 0 0 0.38 0"/>
<feBlend mode="normal" in2="BackgroundImageFix" result="effect1_dropShadow"/>
<feBlend mode="normal" in="SourceGraphic" in2="effect1_dropShadow" result="shape"/>
</filter>
</defs>
</svg>
