<svg width="48" height="48" viewBox="0 0 48 48" fill="none" xmlns="http://www.w3.org/2000/svg">
<circle r="24" transform="matrix(-1 0 0 1 24 24)" fill="#7768F2"/>
<path d="M14.3143 27.3859C13.8646 27.8419 13.8698 28.5762 14.3259 29.0259V29.0259C14.7794 29.4729 15.5084 29.4706 15.9591 29.0209L20.2038 24.7846C20.6377 24.3515 20.6377 23.6485 20.2038 23.2154L15.9591 18.9791C15.5084 18.5294 14.7794 18.5271 14.3259 18.9741V18.9741C13.8698 19.4238 13.8646 20.1581 14.3143 20.6141L17.5586 23.904C17.6111 23.9572 17.6111 24.0428 17.5586 24.096L14.3143 27.3859ZM34.5 18.1667C34.5 17.5223 33.9777 17 33.3333 17H20.5C19.8557 17 19.3333 17.5223 19.3333 18.1667V18.1667C19.3333 18.811 19.8557 19.3333 20.5 19.3333H33.3333C33.9777 19.3333 34.5 18.811 34.5 18.1667V18.1667ZM33.3333 25.1667C33.9777 25.1667 34.5 24.6443 34.5 24V24C34.5 23.3557 33.9777 22.8333 33.3333 22.8333H24C23.3557 22.8333 22.8333 23.3557 22.8333 24V24C22.8333 24.6443 23.3557 25.1667 24 25.1667H33.3333ZM33.3333 31C33.9777 31 34.5 30.4777 34.5 29.8333V29.8333C34.5 29.189 33.9777 28.6667 33.3333 28.6667H20.5C19.8557 28.6667 19.3333 29.189 19.3333 29.8333V29.8333C19.3333 30.4777 19.8557 31 20.5 31H33.3333Z" fill="white"/>
</svg>
